<svg viewBox="0 0 480 360" xmlns="http://www.w3.org/2000/svg" role="img" aria-label="National growth and development">
  <rect width="480" height="360" fill="#eef5f1"/>
  <g fill="#cce5d8"><rect x="70" y="200" width="56" height="100"/><rect x="140" y="160" width="56" height="140"/></g>
  <g fill="#008751"><rect x="250" y="170" width="44" height="130"/><rect x="305" y="130" width="44" height="170"/><rect x="360" y="86" width="44" height="214"/></g>
  <polyline points="70,230 168,196 272,176 327,140 382,92" fill="none" stroke="#00532f" stroke-width="6" stroke-linecap="round" stroke-linejoin="round"/>
  <path d="M382 92 l-26 6 l12 22 z" fill="#00532f"/>
  <path d="M398 40 l6 17 h18 l-15 11 l6 17 l-15 -11 l-15 11 l6 -17 l-15 -11 h18 z" fill="#00a862"/>
  <line x1="50" y1="300" x2="430" y2="300" stroke="#9cc4b2" stroke-width="4"/>
</svg>
