<svg viewBox="0 0 1200 200" xmlns="http://www.w3.org/2000/svg" role="img" aria-label="Nigerian flag">
  <defs><clipPath id="wave"><path d="M0 24 Q300 0 600 24 T1200 24 L1200 176 Q900 200 600 176 T0 176 Z"/></clipPath></defs>
  <g clip-path="url(#wave)">
    <rect x="0" y="0" width="400" height="200" fill="#008751"/>
    <rect x="400" y="0" width="400" height="200" fill="#ffffff"/>
    <rect x="800" y="0" width="400" height="200" fill="#008751"/>
    <path d="M0 24 Q300 0 600 24 T1200 24 L1200 70 Q900 46 600 70 T0 70 Z" fill="#000000" opacity="0.05"/>
    <path d="M0 130 Q300 106 600 130 T1200 130 L1200 176 Q900 200 600 176 T0 176 Z" fill="#000000" opacity="0.05"/>
  </g>
</svg>
